<svg width="48" height="48" viewBox="0 0 48 48" fill="none" xmlns="http://www.w3.org/2000/svg">
<path d="M40.9075 43.7367L35.223 37.9982H13C10.4717 37.9982 8.33967 37.1302 6.604 35.3942C4.868 33.6586 4 31.5266 4 28.9982C4 26.5599 4.81733 24.4946 6.452 22.8022C8.08667 21.1099 10.0002 20.1982 12.1925 20.0672C12.2155 19.5699 12.3538 18.9527 12.6075 18.2157C12.8615 17.4784 13.1538 16.8444 13.4845 16.3137L5.723 8.55222L7.1385 7.13672L42.323 42.3212L40.9075 43.7367ZM13 35.9982H33.146L14.969 17.8212C14.6717 18.3676 14.4358 19.0124 14.2615 19.7557C14.0872 20.4994 14 21.2469 14 21.9982H13C11.0667 21.9982 9.41667 22.6816 8.05 24.0482C6.68333 25.4149 6 27.0649 6 28.9982C6 30.9316 6.68333 32.5816 8.05 33.9482C9.41667 35.3149 11.0667 35.9982 13 35.9982ZM41.8155 36.1137L40.377 34.6982C40.8923 34.2059 41.2917 33.6554 41.575 33.0467C41.8583 32.4381 42 31.7552 42 30.9982C42 29.5982 41.5167 28.4149 40.55 27.4482C39.5833 26.4816 38.4 25.9982 37 25.9982H34V21.9982C34 19.2316 33.025 16.8732 31.075 14.9232C29.125 12.9732 26.7667 11.9982 24 11.9982C23.1 11.9982 22.2333 12.1066 21.4 12.3232C20.5667 12.5399 19.7667 12.8816 19 13.3482L17.5615 11.8712C18.7282 11.1739 19.8032 10.6874 20.7865 10.4117C21.7698 10.1361 22.841 9.99822 24 9.99822C27.343 9.99822 30.1787 11.1626 32.507 13.4912C34.8357 15.8196 36 18.6552 36 21.9982V23.9982H37.231C39.1463 24.0599 40.7533 24.7631 42.052 26.1077C43.3507 27.4527 44 29.0829 44 30.9982C44 31.9136 43.8333 32.8014 43.5 33.6617C43.1667 34.5221 42.6052 35.3394 41.8155 36.1137Z" fill="#17171A"/>
</svg>
