<svg width="48" height="48" viewBox="0 0 48 48" fill="none" xmlns="http://www.w3.org/2000/svg">
<path d="M10 30.2271V11.9961C10 10.6911 10.375 9.64176 11.125 8.84809C11.875 8.05443 12.891 7.44676 14.173 7.02509C15.455 6.60309 16.9453 6.32609 18.644 6.19409C20.343 6.06209 22.1283 5.99609 24 5.99609C25.9437 5.99609 27.7623 6.06209 29.456 6.19409C31.1493 6.32609 32.6313 6.60309 33.902 7.02509C35.1723 7.44676 36.173 8.05443 36.904 8.84809C37.6347 9.64176 38 10.6911 38 11.9961V30.2271C38 31.8348 37.4403 33.1981 36.321 34.3171C35.202 35.4364 33.8387 35.9961 32.231 35.9961L35.231 38.9961V39.9961H33.5385L29.5385 35.9961H18.4615L14.4615 39.9961H12.769V38.9961L15.769 35.9961C14.1613 35.9961 12.798 35.4364 11.679 34.3171C10.5597 33.1981 10 31.8348 10 30.2271ZM24 7.99609C20.082 7.99609 17.2295 8.25576 15.4425 8.77509C13.6552 9.29409 12.5768 10.0601 12.2075 11.0731H35.8385C35.4922 10.0448 34.4235 9.27493 32.6325 8.76359C30.8415 8.25193 27.964 7.99609 24 7.99609ZM12 21.9961H23V13.0731H12V21.9961ZM32.231 23.9961H12H36H32.231ZM25 21.9961H36V13.0731H25V21.9961ZM18.5925 30.5886C19.0182 30.1629 19.231 29.6321 19.231 28.9961C19.231 28.3601 19.0182 27.8293 18.5925 27.4036C18.1668 26.9779 17.636 26.7651 17 26.7651C16.364 26.7651 15.8332 26.9779 15.4075 27.4036C14.9818 27.8293 14.769 28.3601 14.769 28.9961C14.769 29.6321 14.9818 30.1629 15.4075 30.5886C15.8332 31.0143 16.364 31.2271 17 31.2271C17.636 31.2271 18.1668 31.0143 18.5925 30.5886ZM32.5925 30.5886C33.0182 30.1629 33.231 29.6321 33.231 28.9961C33.231 28.3601 33.0182 27.8293 32.5925 27.4036C32.1668 26.9779 31.636 26.7651 31 26.7651C30.364 26.7651 29.8332 26.9779 29.4075 27.4036C28.9818 27.8293 28.769 28.3601 28.769 28.9961C28.769 29.6321 28.9818 30.1629 29.4075 30.5886C29.8332 31.0143 30.364 31.2271 31 31.2271C31.636 31.2271 32.1668 31.0143 32.5925 30.5886ZM15.769 33.9961H32.231C33.277 33.9961 34.1667 33.6294 34.9 32.8961C35.6333 32.1628 36 31.2731 36 30.2271V23.9961H12V30.2271C12 31.2731 12.3667 32.1628 13.1 32.8961C13.8333 33.6294 14.723 33.9961 15.769 33.9961ZM24 11.0731H35.8385H12.2075H24Z" fill="#17171A"/>
</svg>
