<svg preserveAspectRatio="none" width="100%" height="100%" overflow="visible" style="display: block;" viewBox="0 0 17.5663 21.0796" fill="none" xmlns="http://www.w3.org/2000/svg">
<g id="Apple">
<path id="&#60;Path&#62;" d="M14.6713 11.2087C14.682 10.4008 14.9018 9.60858 15.3103 8.90587C15.7188 8.20316 16.3028 7.61275 17.0078 7.18957C16.5599 6.56507 15.969 6.05113 15.2821 5.68856C14.5952 5.326 13.8311 5.12481 13.0506 5.10097C11.3857 4.93035 9.7716 6.07363 8.92315 6.07363C8.05831 6.07363 6.75203 5.11791 5.34538 5.14617C4.43552 5.17487 3.54879 5.43318 2.77159 5.89593C1.99438 6.35868 1.35321 7.0101 0.910548 7.7867C-1.00694 11.0279 0.423337 15.7914 2.26016 18.4114C3.17917 19.6943 4.25321 21.1274 5.6586 21.0765C7.03385 21.0209 7.54748 20.2204 9.20752 20.2204C10.8522 20.2204 11.334 21.0765 12.7679 21.0442C14.2437 21.0209 15.1734 19.7556 16.0602 18.4605C16.7205 17.5464 17.2286 16.5361 17.5657 15.467C16.7083 15.113 15.9767 14.5204 15.462 13.7632C14.9473 13.0059 14.6723 12.1175 14.6713 11.2087Z" fill="var(--fill-0, #FAF7EC)"/>
<path id="&#60;Path&#62;_2" d="M11.9614 3.37887C12.766 2.43586 13.1624 1.22376 13.0664 0C11.8372 0.126051 10.7017 0.699638 9.88617 1.60647C9.48745 2.04949 9.18207 2.56488 8.9875 3.12318C8.79292 3.68149 8.71297 4.27176 8.75219 4.86025C9.36705 4.86643 9.97533 4.73632 10.5312 4.47972C11.0871 4.22312 11.5761 3.84672 11.9614 3.37887Z" fill="var(--fill-0, #FAF7EC)"/>
</g>
</svg>
